<mxfile host="app.diagrams.net" agent="Mozilla/5.0 (Windows NT 10.0; Win64; x64) AppleWebKit/537.36 (KHTML, like Gecko) Chrome/131.0.0.0 Safari/537.36 Edg/131.0.0.0" version="24.8.6">
  <diagram id="C5RBs43oDa-KdzZeNtuy" name="Page-1">
    <mxGraphModel dx="2073" dy="681" grid="1" gridSize="10" guides="1" tooltips="1" connect="1" arrows="1" fold="1" page="1" pageScale="1" pageWidth="827" pageHeight="1169" math="0" shadow="0">
      <root>
        <mxCell id="WIyWlLk6GJQsqaUBKTNV-0" />
        <mxCell id="WIyWlLk6GJQsqaUBKTNV-1" parent="WIyWlLk6GJQsqaUBKTNV-0" />
        <mxCell id="mvioNwK95yMqdUQ73LqQ-36" value="" style="swimlane;fontFamily=Sarabun;fontSource=https%3A%2F%2Ffonts.googleapis.com%2Fcss%3Ffamily%3DSarabun;" parent="WIyWlLk6GJQsqaUBKTNV-1" vertex="1">
          <mxGeometry x="-670" y="20" width="640" height="1670" as="geometry" />
        </mxCell>
        <mxCell id="JBCHaNcfTczLMrVH9G6V-0" style="edgeStyle=orthogonalEdgeStyle;rounded=0;orthogonalLoop=1;jettySize=auto;html=1;exitX=0.5;exitY=1;exitDx=0;exitDy=0;" parent="mvioNwK95yMqdUQ73LqQ-36" edge="1">
          <mxGeometry relative="1" as="geometry">
            <mxPoint x="314.8758620689656" y="130" as="targetPoint" />
            <mxPoint x="314.6" y="70" as="sourcePoint" />
          </mxGeometry>
        </mxCell>
        <mxCell id="mvioNwK95yMqdUQ73LqQ-35" value="&lt;font data-font-src=&quot;https://fonts.googleapis.com/css?family=Sarabun&quot; face=&quot;Sarabun&quot;&gt;Start&lt;/font&gt;" style="ellipse;whiteSpace=wrap;html=1;" parent="mvioNwK95yMqdUQ73LqQ-36" vertex="1">
          <mxGeometry x="250" y="40" width="130" height="30" as="geometry" />
        </mxCell>
        <mxCell id="mvioNwK95yMqdUQ73LqQ-69" value="&lt;font face=&quot;Sarabun&quot;&gt;End&lt;/font&gt;" style="ellipse;whiteSpace=wrap;html=1;" parent="mvioNwK95yMqdUQ73LqQ-36" vertex="1">
          <mxGeometry x="210" y="1210" width="130" height="30" as="geometry" />
        </mxCell>
        <mxCell id="jcar555aHLR59fEmGhmi-21" style="edgeStyle=orthogonalEdgeStyle;rounded=0;orthogonalLoop=1;jettySize=auto;html=1;entryX=0.5;entryY=0;entryDx=0;entryDy=0;" edge="1" parent="mvioNwK95yMqdUQ73LqQ-36" source="jcar555aHLR59fEmGhmi-0" target="jcar555aHLR59fEmGhmi-1">
          <mxGeometry relative="1" as="geometry" />
        </mxCell>
        <mxCell id="jcar555aHLR59fEmGhmi-0" value="Declare&amp;nbsp; firstName,lastName is char, each variable maximum is 20 characters&lt;div&gt;&lt;br&gt;&lt;/div&gt;" style="rounded=0;whiteSpace=wrap;html=1;" vertex="1" parent="mvioNwK95yMqdUQ73LqQ-36">
          <mxGeometry x="191.25" y="130" width="247.5" height="60" as="geometry" />
        </mxCell>
        <mxCell id="jcar555aHLR59fEmGhmi-1" value="Output &quot;First Name: &quot;" style="shape=parallelogram;perimeter=parallelogramPerimeter;whiteSpace=wrap;html=1;fixedSize=1;" vertex="1" parent="mvioNwK95yMqdUQ73LqQ-36">
          <mxGeometry x="217.5" y="230" width="195" height="60" as="geometry" />
        </mxCell>
        <mxCell id="jcar555aHLR59fEmGhmi-3" value="Read firstName" style="shape=parallelogram;perimeter=parallelogramPerimeter;whiteSpace=wrap;html=1;fixedSize=1;" vertex="1" parent="mvioNwK95yMqdUQ73LqQ-36">
          <mxGeometry x="210" y="320" width="195" height="60" as="geometry" />
        </mxCell>
        <mxCell id="jcar555aHLR59fEmGhmi-4" value="Output &quot;Last Name: &quot;" style="shape=parallelogram;perimeter=parallelogramPerimeter;whiteSpace=wrap;html=1;fixedSize=1;" vertex="1" parent="mvioNwK95yMqdUQ73LqQ-36">
          <mxGeometry x="200" y="420" width="195" height="60" as="geometry" />
        </mxCell>
        <mxCell id="jcar555aHLR59fEmGhmi-27" style="edgeStyle=orthogonalEdgeStyle;rounded=0;orthogonalLoop=1;jettySize=auto;html=1;entryX=0.5;entryY=0;entryDx=0;entryDy=0;" edge="1" parent="mvioNwK95yMqdUQ73LqQ-36" source="jcar555aHLR59fEmGhmi-5" target="jcar555aHLR59fEmGhmi-7">
          <mxGeometry relative="1" as="geometry" />
        </mxCell>
        <mxCell id="jcar555aHLR59fEmGhmi-5" value="Read lastName" style="shape=parallelogram;perimeter=parallelogramPerimeter;whiteSpace=wrap;html=1;fixedSize=1;" vertex="1" parent="mvioNwK95yMqdUQ73LqQ-36">
          <mxGeometry x="185" y="525" width="195" height="60" as="geometry" />
        </mxCell>
        <mxCell id="jcar555aHLR59fEmGhmi-20" style="edgeStyle=orthogonalEdgeStyle;rounded=0;orthogonalLoop=1;jettySize=auto;html=1;entryX=0.5;entryY=0;entryDx=0;entryDy=0;" edge="1" parent="mvioNwK95yMqdUQ73LqQ-36" source="jcar555aHLR59fEmGhmi-7" target="jcar555aHLR59fEmGhmi-8">
          <mxGeometry relative="1" as="geometry" />
        </mxCell>
        <mxCell id="jcar555aHLR59fEmGhmi-7" value="Declare len is int, call function for find length of firstName&amp;nbsp;" style="rounded=0;whiteSpace=wrap;html=1;" vertex="1" parent="mvioNwK95yMqdUQ73LqQ-36">
          <mxGeometry x="154.38" y="650" width="250" height="60" as="geometry" />
        </mxCell>
        <mxCell id="jcar555aHLR59fEmGhmi-9" style="edgeStyle=orthogonalEdgeStyle;rounded=0;orthogonalLoop=1;jettySize=auto;html=1;" edge="1" parent="mvioNwK95yMqdUQ73LqQ-36" source="jcar555aHLR59fEmGhmi-8">
          <mxGeometry relative="1" as="geometry">
            <mxPoint x="282.5" y="930" as="targetPoint" />
          </mxGeometry>
        </mxCell>
        <mxCell id="jcar555aHLR59fEmGhmi-15" style="edgeStyle=orthogonalEdgeStyle;rounded=0;orthogonalLoop=1;jettySize=auto;html=1;exitX=1;exitY=0.5;exitDx=0;exitDy=0;" edge="1" parent="mvioNwK95yMqdUQ73LqQ-36" source="jcar555aHLR59fEmGhmi-8">
          <mxGeometry relative="1" as="geometry">
            <mxPoint x="280" y="1065" as="targetPoint" />
            <mxPoint x="410.63" y="830" as="sourcePoint" />
            <Array as="points">
              <mxPoint x="490" y="815" />
              <mxPoint x="490" y="1065" />
            </Array>
          </mxGeometry>
        </mxCell>
        <mxCell id="jcar555aHLR59fEmGhmi-8" value="If last element of firstName is equal C letter" style="rhombus;whiteSpace=wrap;html=1;" vertex="1" parent="mvioNwK95yMqdUQ73LqQ-36">
          <mxGeometry x="154.38" y="750" width="256.25" height="130" as="geometry" />
        </mxCell>
        <mxCell id="jcar555aHLR59fEmGhmi-14" style="edgeStyle=orthogonalEdgeStyle;rounded=0;orthogonalLoop=1;jettySize=auto;html=1;entryX=0.5;entryY=0;entryDx=0;entryDy=0;" edge="1" parent="mvioNwK95yMqdUQ73LqQ-36" source="jcar555aHLR59fEmGhmi-10" target="jcar555aHLR59fEmGhmi-13">
          <mxGeometry relative="1" as="geometry" />
        </mxCell>
        <mxCell id="jcar555aHLR59fEmGhmi-10" value="Last element of first Name add by 1&amp;nbsp;" style="rounded=0;whiteSpace=wrap;html=1;" vertex="1" parent="mvioNwK95yMqdUQ73LqQ-36">
          <mxGeometry x="223" y="930" width="120" height="60" as="geometry" />
        </mxCell>
        <mxCell id="jcar555aHLR59fEmGhmi-11" value="Yes" style="text;html=1;align=center;verticalAlign=middle;resizable=0;points=[];autosize=1;strokeColor=none;fillColor=none;" vertex="1" parent="mvioNwK95yMqdUQ73LqQ-36">
          <mxGeometry x="200" y="880" width="40" height="30" as="geometry" />
        </mxCell>
        <mxCell id="jcar555aHLR59fEmGhmi-12" value="No&lt;div&gt;&lt;br&gt;&lt;/div&gt;" style="text;html=1;align=center;verticalAlign=middle;resizable=0;points=[];autosize=1;strokeColor=none;fillColor=none;" vertex="1" parent="mvioNwK95yMqdUQ73LqQ-36">
          <mxGeometry x="420" y="770" width="40" height="40" as="geometry" />
        </mxCell>
        <mxCell id="jcar555aHLR59fEmGhmi-13" value="Output firstName lastName + &quot;s TC, RMUTL, Chiang Mai, Thailand&quot;" style="shape=parallelogram;perimeter=parallelogramPerimeter;whiteSpace=wrap;html=1;fixedSize=1;" vertex="1" parent="mvioNwK95yMqdUQ73LqQ-36">
          <mxGeometry x="21.75" y="1089" width="522.5" height="60" as="geometry" />
        </mxCell>
        <mxCell id="jcar555aHLR59fEmGhmi-18" style="edgeStyle=orthogonalEdgeStyle;rounded=0;orthogonalLoop=1;jettySize=auto;html=1;entryX=0.559;entryY=-0.044;entryDx=0;entryDy=0;entryPerimeter=0;" edge="1" parent="mvioNwK95yMqdUQ73LqQ-36" source="jcar555aHLR59fEmGhmi-13" target="mvioNwK95yMqdUQ73LqQ-69">
          <mxGeometry relative="1" as="geometry" />
        </mxCell>
        <mxCell id="jcar555aHLR59fEmGhmi-22" style="edgeStyle=orthogonalEdgeStyle;rounded=0;orthogonalLoop=1;jettySize=auto;html=1;entryX=0.535;entryY=0.033;entryDx=0;entryDy=0;entryPerimeter=0;" edge="1" parent="mvioNwK95yMqdUQ73LqQ-36" source="jcar555aHLR59fEmGhmi-1" target="jcar555aHLR59fEmGhmi-3">
          <mxGeometry relative="1" as="geometry" />
        </mxCell>
        <mxCell id="jcar555aHLR59fEmGhmi-25" style="edgeStyle=orthogonalEdgeStyle;rounded=0;orthogonalLoop=1;jettySize=auto;html=1;entryX=0.548;entryY=-0.05;entryDx=0;entryDy=0;entryPerimeter=0;" edge="1" parent="mvioNwK95yMqdUQ73LqQ-36" source="jcar555aHLR59fEmGhmi-3" target="jcar555aHLR59fEmGhmi-4">
          <mxGeometry relative="1" as="geometry" />
        </mxCell>
        <mxCell id="jcar555aHLR59fEmGhmi-26" style="edgeStyle=orthogonalEdgeStyle;rounded=0;orthogonalLoop=1;jettySize=auto;html=1;entryX=0.569;entryY=0.047;entryDx=0;entryDy=0;entryPerimeter=0;" edge="1" parent="mvioNwK95yMqdUQ73LqQ-36" source="jcar555aHLR59fEmGhmi-4" target="jcar555aHLR59fEmGhmi-5">
          <mxGeometry relative="1" as="geometry" />
        </mxCell>
      </root>
    </mxGraphModel>
  </diagram>
</mxfile>
